<?xml version="1.0" ?><svg enable-background="new 0 0 512 512" id="Layer_1" version="1.1" viewBox="0 0 512 512" xml:space="preserve" xmlns="http://www.w3.org/2000/svg" xmlns:xlink="http://www.w3.org/1999/xlink"><g><g><linearGradient gradientUnits="userSpaceOnUse" id="SVGID_1_" x1="-0.0000027" x2="512" y1="256" y2="256"><stop offset="0" style="stop-color:#E24263"/><stop offset="1" style="stop-color:#DD1E47"/></linearGradient><circle cx="256" cy="256" fill="url(#SVGID_1_)" r="256"/><linearGradient gradientUnits="userSpaceOnUse" id="SVGID_2_" x1="42.6666641" x2="469.3333435" y1="256.0005188" y2="256.0005188"><stop offset="0" style="stop-color:#DD1E47"/><stop offset="1" style="stop-color:#E24263"/></linearGradient><path d="M256,469.3338623c-117.6314697,0-213.3333435-95.7018738-213.3333435-213.3333435    c0-117.6309204,95.7018661-213.333313,213.3333435-213.333313c117.636261,0,213.3333435,95.7024002,213.3333435,213.333313    C469.3333435,373.6319885,373.636261,469.3338623,256,469.3338623z" fill="url(#SVGID_2_)"/></g><path d="M264,144c-66.2740326,0-120,53.7263947-120,120c0,66.2746582,53.7259674,120,120,120   c66.2741394,0,120-53.7253418,120-120C384,197.7263947,330.2741394,144,264,144z M309.9893188,326.6090698h-21.0833435v-51.0751953   h-49.812973v51.0751953h-21.082489V201.3914642h21.082489v51.0757294h49.812973v-51.0757294h21.0833435V326.6090698z" opacity="0.3"/><path d="M256,136c-66.2740326,0-120,53.7263947-120,120c0,66.2746582,53.7259674,120,120,120   c66.2741394,0,120-53.7253418,120-120C376,189.7263947,322.2741394,136,256,136z M301.9893188,318.6090698h-21.0833435v-51.0751953   h-49.8129578v51.0751953h-21.0825043V193.3914642h21.0825043v51.0757294h49.8129578v-51.0757294h21.0833435V318.6090698z" fill="#FFFFFF"/></g></svg>